<svg enable-background="new 0 0 64 64" viewBox="0 0 64 64" xmlns="http://www.w3.org/2000/svg"><circle cx="32" cy="32" fill="#76c2af" r="32"/><path d="m13.9 49.4c1.6 2.1 4.9 2.2 7.4.3 1-.8 2.8-2.9 2.8-7.2v-13.3l19-3.6v8.4c0 3-2.4 3.7-3.2 3.8-.1 0-.1 0-.2 0h-.1c-1 .2-1.9.6-2.8 1.2-2.5 1.9-3.2 5.1-1.6 7.2s4.9 2.2 7.4.3c1.3-1 2.5-2.8 2.5-5.7v-22.3c0-1.2-1-1.8-2.1-1.5l-19.2 3.6c-1.3.4-1.8 1.7-1.8 2.8v13c0 3-2.7 4.4-3.5 4.5h-.1c-.1 0-.2 0-.2 0-.9.2-1.9.6-2.7 1.2-2.5 2-3.2 5.2-1.6 7.3z" fill="#231f20" opacity=".2"/><path d="m13.9 47.4c1.6 2.1 4.9 2.2 7.4.3 1-.8 2.8-2.9 2.8-7.2v-13.3l19-3.6v8.4c0 3-2.4 3.7-3.2 3.8-.1 0-.1 0-.2 0h-.1c-1 .2-1.9.6-2.8 1.2-2.5 1.9-3.2 5.1-1.6 7.2s4.9 2.2 7.4.3c1.3-1 2.5-2.8 2.5-5.7v-22.3c0-1.2-1-1.8-2.1-1.5l-19.2 3.6c-1.3.4-1.8 1.7-1.8 2.8v13c0 3-2.7 4.4-3.5 4.5h-.1c-.1 0-.2 0-.2 0-.9.2-1.9.6-2.7 1.2-2.5 2-3.2 5.2-1.6 7.3z" fill="#fff"/></svg>