<svg enable-background="new 0 0 40 40" height="40" viewBox="0 0 40 40" width="40" xmlns="http://www.w3.org/2000/svg"><g fill="#1a171b"><path d="m14.105 20.35c0-.76-.528-1.214-1.459-1.214-.38 0-.637.037-.772.073v2.441c.16.036.356.049.625.049.993 0 1.606-.503 1.606-1.349z"/><path d="m19.871 19.16c-.417 0-.687.037-.847.074v5.408c.16.037.417.037.65.037 1.692.012 2.796-.92 2.796-2.894.013-1.717-.993-2.625-2.599-2.625z"/><path d="m30.918 15.983h-.678v-3.271c0-.02-.003-.041-.006-.062-.001-.13-.042-.257-.131-.359l-5.443-6.216c-.002-.002-.003-.002-.004-.004-.033-.036-.07-.066-.11-.092-.012-.008-.024-.015-.036-.021-.035-.019-.071-.035-.109-.046-.01-.003-.019-.007-.03-.01-.041-.01-.084-.016-.127-.016h-13.377c-.611 0-1.107.497-1.107 1.107v8.99h-.678c-.874 0-1.582.708-1.582 1.582v8.228c0 .873.709 1.582 1.582 1.582h.678v5.633c0 .61.496 1.107 1.107 1.107h18.266c.61 0 1.107-.497 1.107-1.107v-5.633h.678c.874 0 1.582-.709 1.582-1.582v-8.228c0-.874-.709-1.582-1.582-1.582zm-20.051-8.99h12.823v5.664c0 .306.248.553.554.553h4.89v2.773h-18.267zm13.59 14.73c0 1.582-.576 2.674-1.375 3.348-.87.723-2.194 1.067-3.813 1.067-.969 0-1.655-.062-2.122-.122v-8.119c.687-.11 1.582-.171 2.527-.171 1.569 0 2.587.282 3.384.883.859.637 1.399 1.655 1.399 3.114zm-14.436 4.33v-8.156c.576-.098 1.386-.171 2.526-.171 1.153 0 1.975.221 2.526.662.527.417.882 1.104.882 1.913 0 .81-.269 1.496-.76 1.962-.638.601-1.582.871-2.686.871-.245 0-.466-.012-.637-.037v2.956zm19.112 6.655h-18.266v-5.333h18.266zm1.604-13.388h-3.177v1.889h2.968v1.521h-2.968v3.323h-1.875v-8.266h5.052z"/></g></svg>