<svg fill="none" height="24" viewBox="0 0 24 24" width="24" xmlns="http://www.w3.org/2000/svg"><g fill="#1c274c"><g opacity=".3"><path d="m4.66602 9c-.93189 0-1.39783 0-1.76537-.15224-.49006-.20299-.87941-.59234-1.08239-1.08239-.15224-.36755-.15224-.83349-.15224-1.76537s0-1.39783.15224-1.76537c.20298-.49005.59233-.8794 1.08239-1.08239.36754-.15224.83348-.15224 1.76537-.15224h7.26798c-.0435.07519-.0822.15353-.1157.23463-.1523.36754-.1523.83349-.1523 1.76537v4z"/><path d="m21.666 6c0 .93188 0 1.39782-.1522 1.76537-.203.49005-.5924.8794-1.0824 1.08239-.3676.15224-.8335.15224-1.7654.15224h-1v-4c0-.93188 0-1.39783-.1522-1.76537-.0336-.0811-.0723-.15944-.1157-.23463h1.2679c.9319 0 1.3978 0 1.7654.15224.49.20299.8794.59234 1.0824 1.08239.1522.36754.1522.83349.1522 1.76537z"/></g><g opacity=".7"><path d="m17.5138 20.7654c.1522-.3676.1522-.8335.1522-1.7654v-4h1c.9319 0 1.3978 0 1.7654.1522.49.203.8794.5924 1.0824 1.0824.1522.3676.1522.8335.1522 1.7654s0 1.3978-.1522 1.7654c-.203.49-.5924.8794-1.0824 1.0824-.3676.1522-.8335.1522-1.7654.1522h-1.2679c.0434-.0752.0821-.1535.1157-.2346z"/><path d="m11.934 21h-7.26798c-.93189 0-1.39783 0-1.76537-.1522-.49006-.203-.87941-.5924-1.08239-1.0824-.15224-.3676-.15224-.8335-.15224-1.7654s0-1.3978.15224-1.7654c.20298-.49.59233-.8794 1.08239-1.0824.36754-.1522.83348-.1522 1.76537-.1522h6.99998v4c0 .9319 0 1.3978.1523 1.7654.0335.0811.0722.1594.1157.2346z"/></g><g opacity=".5"><path d="m17.666 9h1c.9319 0 1.3978 0 1.7654.15224.49.20299.8794.59234 1.0824 1.08236.1522.3676.1522.8335.1522 1.7654s0 1.3978-.1522 1.7654c-.203.49-.5924.8794-1.0824 1.0824-.3676.1522-.8335.1522-1.7654.1522h-1z"/><path d="m11.666 9v6h-6.99998c-.93189 0-1.39783 0-1.76537-.1522-.49006-.203-.87941-.5924-1.08239-1.0824-.15224-.3676-.15224-.8335-.15224-1.7654s0-1.3978.15224-1.7654c.20298-.49002.59233-.87937 1.08239-1.08236.36754-.15224.83348-.15224 1.76537-.15224z"/></g><path clip-rule="evenodd" d="m17.5138 3.23463c.1522.36755.1522.83349.1522 1.76537v14c0 .9319 0 1.3978-.1522 1.7654-.0336.0811-.0723.1594-.1157.2346-.2189.3792-.5578.6784-.9667.8478-.3676.1522-.8335.1522-1.7654.1522s-1.3978 0-1.7654-.1522c-.4089-.1694-.7477-.4686-.9666-.8478-.0435-.0752-.0822-.1535-.1157-.2346-.1523-.3676-.1523-.8335-.1523-1.7654v-14c0-.93188 0-1.39782.1523-1.76537.0335-.0811.0722-.15944.1157-.23463.2189-.37918.5577-.67836.9666-.84776.3676-.15224.8335-.15224 1.7654-.15224s1.3978 0 1.7654.15224c.4089.1694.7478.46858.9667.84776.0434.07519.0821.15353.1157.23463zm-2.0978 7.76537c0-.4142-.3358-.75-.75-.75s-.75.3358-.75.75v2c0 .4142.3358.75.75.75s.75-.3358.75-.75z" fill-rule="evenodd"/></g></svg>
